<svg width="17" height="17" viewBox="0 0 17 17" fill="none" xmlns="http://www.w3.org/2000/svg">
<g clip-path="url(#clip0)">
<path d="M4.50078 12.3516C6.82038 12.3516 8.70078 9.74268 8.70078 6.52443C8.70078 3.30617 6.82038 0.697266 4.50078 0.697266C2.18119 0.697266 0.300781 3.30617 0.300781 6.52443C0.300781 9.74268 2.18119 12.3516 4.50078 12.3516Z" stroke="white" stroke-width="0.5" stroke-miterlimit="10"/>
<path d="M4.20158 0.697266C2.90158 2.96887 3.00158 4.45035 3.30158 5.43801C3.80158 6.91949 4.90158 7.41332 5.30158 8.99356C5.60158 10.2775 5.10158 11.4627 4.70158 12.3516" stroke="white" stroke-width="0.5" stroke-miterlimit="10"/>
<path d="M15.8297 14.0119C17.1807 11.9515 16.923 9.41588 15.2541 8.34842C13.5852 7.28096 11.137 8.0859 9.78604 10.1463C8.43504 12.2067 8.69277 14.7423 10.3617 15.8098C12.0306 16.8772 14.4787 16.0723 15.8297 14.0119Z" stroke="white" stroke-width="0.5" stroke-miterlimit="10.0005"/>
<path d="M14.8016 8.20312C14.9016 9.48708 14.6016 10.1784 14.2016 10.6723C13.2016 12.1537 11.4016 11.9562 10.6016 13.4377C10.2016 14.2278 10.2016 15.0179 10.3016 15.6105" stroke="white" stroke-width="0.5" stroke-miterlimit="10"/>
</g>
<defs>
<clipPath id="clip0">
<rect width="17" height="16" fill="white" transform="translate(0 0.5)"/>
</clipPath>
</defs>
</svg>
